<svg xmlns="http://www.w3.org/2000/svg" xmlns:xlink="http://www.w3.org/1999/xlink" width="500" zoomAndPan="magnify" viewBox="0 0 375 374.999991" height="500" preserveAspectRatio="xMidYMid meet" version="1.0"><defs><clipPath id="d117393e74"><path d="M 170 31.132812 L 186 31.132812 L 186 55 L 170 55 Z M 170 31.132812 " clip-rule="nonzero"/></clipPath><clipPath id="11c630d4cb"><path d="M 11.074219 199 L 33 199 L 33 215 L 11.074219 215 Z M 11.074219 199 " clip-rule="nonzero"/></clipPath><clipPath id="3088e517fe"><path d="M 189 31.132812 L 205 31.132812 L 205 55 L 189 55 Z M 189 31.132812 " clip-rule="nonzero"/></clipPath><clipPath id="0bcb7f1d8a"><path d="M 342 199 L 363.574219 199 L 363.574219 215 L 342 215 Z M 342 199 " clip-rule="nonzero"/></clipPath><clipPath id="d2449f6ccd"><path d="M 70 152 L 305 152 L 305 317.632812 L 70 317.632812 Z M 70 152 " clip-rule="nonzero"/></clipPath></defs><rect x="-37.5" width="450" fill="#ffffff" y="-37.499999" height="449.999989" fill-opacity="1"/><rect x="-37.5" width="450" fill="#ffffff" y="-37.499999" height="449.999989" fill-opacity="1"/><rect x="-37.5" width="450" fill="#2b4985" y="-37.499999" height="449.999989" fill-opacity="1"/><path fill="#ffffff" d="M 134.683594 154.496094 C 134.683594 154.496094 134.628906 157.230469 132.894531 160.585938 C 130.023438 166.15625 133.625 169.070312 137.382812 173.089844 C 136.929688 170.726562 136.597656 165.328125 136.597656 165.328125 C 136.597656 165.328125 138.136719 170.515625 138.519531 172.886719 C 148.796875 164.894531 134.683594 154.496094 134.683594 154.496094 " fill-opacity="1" fill-rule="nonzero"/><path fill="#ffffff" d="M 216.613281 142.964844 C 216.613281 142.964844 216.078125 145.648438 213.789062 148.652344 C 209.988281 153.632812 213.023438 157.136719 216.027344 161.75 C 215.988281 159.34375 216.605469 153.96875 216.605469 153.96875 C 216.605469 153.96875 217.21875 159.347656 217.179688 161.75 C 228.695312 155.671875 216.613281 142.964844 216.613281 142.964844 " fill-opacity="1" fill-rule="nonzero"/><path fill="#ffffff" d="M 151.210938 148.753906 C 151.210938 148.753906 153.484375 150.277344 155.375 153.546875 C 158.511719 158.972656 162.90625 157.519531 168.320312 156.523438 C 166.089844 155.632812 161.363281 152.992188 161.363281 152.992188 C 161.363281 152.992188 166.5625 154.496094 168.765625 155.457031 C 167.585938 142.488281 151.210938 148.753906 151.210938 148.753906 " fill-opacity="1" fill-rule="nonzero"/><path fill="#ffffff" d="M 176.246094 73.234375 C 176.246094 73.234375 176.664062 75.9375 175.542969 79.546875 C 173.683594 85.523438 177.734375 87.773438 182.132812 91.082031 C 181.277344 88.835938 180.015625 83.574219 180.015625 83.574219 C 180.015625 83.574219 182.429688 88.414062 183.21875 90.683594 C 191.953125 81.027344 176.246094 73.234375 176.246094 73.234375 " fill-opacity="1" fill-rule="nonzero"/><path fill="#ffffff" d="M 225.898438 92.792969 C 225.898438 92.792969 224.046875 94.808594 220.527344 96.179688 C 214.691406 98.453125 215.460938 103.019531 215.617188 108.523438 C 216.839844 106.449219 220.164062 102.183594 220.164062 102.183594 C 220.164062 102.183594 217.886719 107.09375 216.605469 109.125 C 229.601562 109.929688 225.898438 92.792969 225.898438 92.792969 " fill-opacity="1" fill-rule="nonzero"/><path fill="#ffffff" d="M 117.792969 156.582031 C 117.792969 156.582031 119.566406 158.664062 123.03125 160.167969 C 128.777344 162.664062 127.835938 167.203125 127.464844 172.691406 C 126.324219 170.578125 123.164062 166.179688 123.164062 166.179688 C 123.164062 166.179688 125.25 171.175781 126.457031 173.253906 C 113.4375 173.566406 117.792969 156.582031 117.792969 156.582031 " fill-opacity="1" fill-rule="nonzero"/><path fill="#ffffff" d="M 162.398438 180.988281 C 162.398438 180.988281 162.449219 183.726562 164.171875 187.085938 C 167.023438 192.664062 163.414062 195.570312 159.644531 199.578125 C 160.105469 197.21875 160.453125 191.820312 160.453125 191.820312 C 160.453125 191.820312 158.894531 197 158.507812 199.371094 C 148.253906 191.347656 162.398438 180.988281 162.398438 180.988281 " fill-opacity="1" fill-rule="nonzero"/><path fill="#ffffff" d="M 138.578125 218.632812 C 138.578125 218.632812 140.960938 219.980469 144.730469 220.210938 C 150.984375 220.59375 151.648438 225.175781 153.175781 230.464844 C 151.382812 228.867188 146.910156 225.820312 146.910156 225.820312 C 146.910156 225.820312 150.578125 229.796875 152.421875 231.339844 C 140.292969 236.078125 138.578125 218.632812 138.578125 218.632812 " fill-opacity="1" fill-rule="nonzero"/><path fill="#ffffff" d="M 97.941406 209.324219 C 97.941406 209.324219 100.679688 209.339844 104.082031 207.703125 C 109.726562 204.984375 112.542969 208.660156 116.457031 212.53125 C 114.109375 212.007812 108.71875 211.53125 108.71875 211.53125 C 108.71875 211.53125 113.863281 213.214844 116.226562 213.660156 C 107.953125 223.71875 97.941406 209.324219 97.941406 209.324219 " fill-opacity="1" fill-rule="nonzero"/><path fill="#ffffff" d="M 90.90625 193.726562 C 90.90625 193.726562 93.644531 193.742188 97.042969 192.101562 C 102.691406 189.382812 105.507812 193.0625 109.421875 196.929688 C 107.074219 196.410156 101.683594 195.933594 101.683594 195.933594 C 101.683594 195.933594 106.828125 197.617188 109.191406 198.0625 C 100.917969 208.117188 90.90625 193.726562 90.90625 193.726562 " fill-opacity="1" fill-rule="nonzero"/><path fill="#ffffff" d="M 72.304688 222.722656 C 72.304688 222.722656 75.042969 222.738281 78.445312 221.097656 C 84.089844 218.378906 86.90625 222.058594 90.820312 225.925781 C 88.476562 225.40625 83.085938 224.929688 83.085938 224.929688 C 83.085938 224.929688 88.230469 226.613281 90.589844 227.058594 C 82.316406 237.113281 72.304688 222.722656 72.304688 222.722656 " fill-opacity="1" fill-rule="nonzero"/><path fill="#ffffff" d="M 127.78125 126.644531 C 127.78125 126.644531 128.933594 129.128906 131.867188 131.503906 C 136.738281 135.445312 134.34375 140.695312 132.789062 144.753906 C 132.257812 142.414062 130.386719 137.335938 130.386719 137.335938 C 130.386719 137.335938 131.0625 142.703125 131.667969 145.027344 C 119.042969 141.84375 127.78125 126.644531 127.78125 126.644531 " fill-opacity="1" fill-rule="nonzero"/><path fill="#ffffff" d="M 92.140625 94.722656 C 92.140625 94.722656 93.707031 96.96875 97.011719 98.796875 C 102.492188 101.832031 101.046875 107.417969 100.226562 111.6875 C 99.296875 109.472656 96.570312 104.796875 96.570312 104.796875 C 96.570312 104.796875 98.171875 109.96875 99.171875 112.15625 C 86.183594 111.214844 92.140625 94.722656 92.140625 94.722656 " fill-opacity="1" fill-rule="nonzero"/><path fill="#ffffff" d="M 207.582031 57.8125 C 207.582031 57.8125 205.957031 60.011719 202.609375 61.757812 C 197.054688 64.652344 198.359375 70.273438 199.070312 74.5625 C 200.058594 72.371094 202.902344 67.769531 202.902344 67.769531 C 202.902344 67.769531 201.171875 72.894531 200.113281 75.054688 C 213.121094 74.441406 207.582031 57.8125 207.582031 57.8125 " fill-opacity="1" fill-rule="nonzero"/><path fill="#ffffff" d="M 149.191406 62.835938 C 149.191406 62.835938 150.34375 65.316406 153.277344 67.691406 C 158.148438 71.632812 155.75 76.882812 154.199219 80.941406 C 153.667969 78.601562 151.796875 73.523438 151.796875 73.523438 C 151.796875 73.523438 152.472656 78.890625 153.078125 81.21875 C 140.453125 78.035156 149.191406 62.835938 149.191406 62.835938 " fill-opacity="1" fill-rule="nonzero"/><path fill="#ffffff" d="M 209.789062 100.492188 C 209.789062 100.492188 209.023438 103.121094 209.675781 106.839844 C 210.757812 113.015625 205.5 115.394531 201.664062 117.4375 C 202.800781 115.316406 204.726562 110.261719 204.726562 110.261719 C 204.726562 110.261719 201.710938 114.753906 200.640625 116.90625 C 193.214844 106.207031 209.789062 100.492188 209.789062 100.492188 " fill-opacity="1" fill-rule="nonzero"/><path fill="#ffffff" d="M 140.460938 140.839844 C 140.460938 140.839844 141.910156 143.160156 145.117188 145.15625 C 150.4375 148.464844 148.707031 153.972656 147.667969 158.191406 C 146.847656 155.933594 144.367188 151.125 144.367188 151.125 C 144.367188 151.125 145.699219 156.371094 146.589844 158.601562 C 133.667969 157 140.460938 140.839844 140.460938 140.839844 " fill-opacity="1" fill-rule="nonzero"/><path fill="#ffffff" d="M 149.90625 94.597656 C 149.90625 94.597656 151.355469 96.917969 154.5625 98.914062 C 159.882812 102.226562 158.152344 107.730469 157.113281 111.953125 C 156.292969 109.695312 153.8125 104.882812 153.8125 104.882812 C 153.8125 104.882812 155.144531 110.128906 156.03125 112.359375 C 143.113281 110.757812 149.90625 94.597656 149.90625 94.597656 " fill-opacity="1" fill-rule="nonzero"/><path fill="#ffffff" d="M 169.488281 100.082031 C 169.488281 100.082031 170.9375 102.402344 174.144531 104.398438 C 179.460938 107.710938 177.730469 113.214844 176.695312 117.4375 C 175.875 115.175781 173.390625 110.367188 173.390625 110.367188 C 173.390625 110.367188 174.726562 115.613281 175.613281 117.84375 C 162.695312 116.246094 169.488281 100.082031 169.488281 100.082031 " fill-opacity="1" fill-rule="nonzero"/><path fill="#ffffff" d="M 232.578125 68.625 C 232.578125 68.625 231.539062 71.152344 231.78125 74.921875 C 232.191406 81.175781 226.707031 82.976562 222.671875 84.59375 C 224.03125 82.609375 226.492188 77.789062 226.492188 77.789062 C 226.492188 77.789062 223.007812 81.933594 221.707031 83.953125 C 215.484375 72.519531 232.578125 68.625 232.578125 68.625 " fill-opacity="1" fill-rule="nonzero"/><path fill="#ffffff" d="M 285.597656 95.207031 C 285.597656 95.207031 284.367188 97.652344 284.328125 101.429688 C 284.265625 107.695312 278.664062 109.078125 274.515625 110.386719 C 276.023438 108.511719 278.839844 103.894531 278.839844 103.894531 C 278.839844 103.894531 275.050781 107.757812 273.609375 109.679688 C 268.257812 97.804688 285.597656 95.207031 285.597656 95.207031 " fill-opacity="1" fill-rule="nonzero"/><path fill="#ffffff" d="M 170.167969 52.152344 C 170.167969 52.152344 171.617188 54.46875 174.824219 56.46875 C 180.144531 59.78125 178.414062 65.285156 177.375 69.503906 C 176.558594 67.246094 174.074219 62.4375 174.074219 62.4375 C 174.074219 62.4375 175.410156 67.679688 176.296875 69.917969 C 163.375 68.3125 170.167969 52.152344 170.167969 52.152344 " fill-opacity="1" fill-rule="nonzero"/><path fill="#ffffff" d="M 197.851562 86.0625 C 197.851562 86.0625 196.703125 88.546875 196.78125 92.324219 C 196.910156 98.585938 191.355469 100.144531 187.25 101.578125 C 188.695312 99.660156 191.371094 94.953125 191.371094 94.953125 C 191.371094 94.953125 187.703125 98.9375 186.320312 100.898438 C 180.605469 89.195312 197.851562 86.0625 197.851562 86.0625 " fill-opacity="1" fill-rule="nonzero"/><path fill="#ffffff" d="M 194.210938 59.667969 C 194.210938 59.667969 193.832031 62.378906 195.015625 65.96875 C 196.972656 71.921875 192.117188 75.03125 188.613281 77.605469 C 189.433594 75.347656 190.609375 70.070312 190.609375 70.070312 C 190.609375 70.070312 188.269531 74.945312 187.523438 77.230469 C 178.632812 67.714844 194.210938 59.667969 194.210938 59.667969 " fill-opacity="1" fill-rule="nonzero"/><g clip-path="url(#d117393e74)"><path fill="#ffffff" d="M 171.417969 31.117188 C 171.417969 31.117188 172.121094 34.75 170.792969 39.679688 C 168.582031 47.863281 174.992188 50.871094 180.292969 54.9375 C 179.019531 51.945312 177.042969 44.898438 177.042969 44.898438 C 177.042969 44.898438 180.558594 51.316406 181.738281 54.347656 C 193.046875 40.839844 171.417969 31.117188 171.417969 31.117188 " fill-opacity="1" fill-rule="nonzero"/></g><path fill="#ffffff" d="M 82.949219 64.695312 C 82.949219 64.695312 83.652344 68.332031 82.320312 73.265625 C 80.113281 81.449219 87.242188 85.417969 91.824219 88.515625 C 90.550781 85.527344 88.570312 78.476562 88.570312 78.476562 C 88.570312 78.476562 92.089844 84.898438 93.269531 87.925781 C 104.578125 74.421875 82.949219 64.695312 82.949219 64.695312 " fill-opacity="1" fill-rule="nonzero"/><path fill="#ffffff" d="M 48.746094 96.511719 C 48.746094 96.511719 50.699219 99.65625 51.210938 104.742188 C 52.058594 113.175781 61.273438 113.054688 65.515625 115.617188 C 63.261719 113.277344 58.90625 107.394531 58.90625 107.394531 C 58.90625 107.394531 64.476562 112.140625 66.660156 114.550781 C 72.421875 97.90625 48.746094 96.511719 48.746094 96.511719 " fill-opacity="1" fill-rule="nonzero"/><path fill="#ffffff" d="M 104.113281 118.328125 C 104.113281 118.328125 105.585938 121.722656 105.351562 126.828125 C 104.960938 135.296875 113.382812 137.589844 117.921875 139.671875 C 116.03125 137.027344 112.578125 130.570312 112.578125 130.570312 C 112.578125 130.570312 117.398438 136.082031 119.203125 138.78125 C 127.332031 123.15625 104.113281 118.328125 104.113281 118.328125 " fill-opacity="1" fill-rule="nonzero"/><path fill="#ffffff" d="M 137.148438 120.890625 C 137.148438 120.890625 140.078125 123.148438 145.082031 124.171875 C 153.386719 125.871094 153.546875 134.601562 154.449219 139.511719 C 152.347656 137.03125 146.9375 132.097656 146.9375 132.097656 C 146.9375 132.097656 151.097656 138.121094 153.273438 140.535156 C 136.128906 144.582031 137.148438 120.890625 137.148438 120.890625 " fill-opacity="1" fill-rule="nonzero"/><path fill="#ffffff" d="M 190.632812 105.542969 C 190.632812 105.542969 190.710938 109.242188 193.058594 113.78125 C 196.945312 121.3125 190.25 126.914062 186.996094 130.699219 C 187.609375 127.507812 188.050781 120.199219 188.050781 120.199219 C 188.050781 120.199219 185.96875 127.21875 185.457031 130.429688 C 171.546875 119.621094 190.632812 105.542969 190.632812 105.542969 " fill-opacity="1" fill-rule="nonzero"/><path fill="#ffffff" d="M 64.25 125.683594 C 64.25 125.683594 66.203125 128.824219 66.714844 133.910156 C 67.5625 142.34375 72.851562 142.917969 81.023438 144.785156 C 78.765625 142.445312 74.410156 136.5625 74.410156 136.5625 C 74.410156 136.5625 79.980469 141.308594 82.164062 143.71875 C 87.925781 127.074219 64.25 125.683594 64.25 125.683594 " fill-opacity="1" fill-rule="nonzero"/><path fill="#ffffff" d="M 51.945312 148.765625 C 51.945312 148.765625 54.914062 150.976562 57.25 155.519531 C 61.128906 163.054688 68.703125 160.902344 74.546875 160.394531 C 71.589844 159.042969 65.382812 155.164062 65.382812 155.164062 C 65.382812 155.164062 72.304688 157.542969 75.21875 158.984375 C 74.484375 141.386719 51.945312 148.765625 51.945312 148.765625 " fill-opacity="1" fill-rule="nonzero"/><path fill="#ffffff" d="M 87.976562 162.121094 C 87.976562 162.121094 89.480469 164.957031 89.625 169.386719 C 89.863281 176.738281 96.542969 178.867188 101.375 179.640625 C 99.558594 177.480469 96.132812 172.132812 96.132812 172.132812 C 96.132812 172.132812 100.675781 176.570312 102.421875 178.785156 C 108.390625 164.714844 87.976562 162.121094 87.976562 162.121094 " fill-opacity="1" fill-rule="nonzero"/><path fill="#ffffff" d="M 107.792969 284.332031 C 107.792969 284.332031 110.867188 282.273438 115.933594 281.589844 C 124.332031 280.457031 126.78125 276.375 126.316406 266.925781 C 124.054688 269.257812 118.320312 273.8125 118.320312 273.8125 C 118.320312 273.8125 122.878906 268.082031 125.214844 265.820312 C 108.382812 260.621094 107.792969 284.332031 107.792969 284.332031 " fill-opacity="1" fill-rule="nonzero"/><path fill="#ffffff" d="M 130.136719 70.003906 C 130.136719 70.003906 130.84375 73.636719 129.511719 78.570312 C 127.300781 86.75 133.765625 89.910156 139.011719 93.824219 C 137.738281 90.832031 135.757812 83.785156 135.757812 83.785156 C 135.757812 83.785156 139.277344 90.203125 140.457031 93.230469 C 151.765625 79.726562 130.136719 70.003906 130.136719 70.003906 " fill-opacity="1" fill-rule="nonzero"/><path fill="#ffffff" d="M 62.589844 80.90625 C 62.589844 80.90625 64.777344 84.859375 65.085938 91.082031 C 65.601562 101.410156 74.230469 101.320312 81.855469 105.207031 C 79.25 102.21875 74.300781 94.78125 74.300781 94.78125 C 74.300781 94.78125 80.800781 100.910156 83.308594 103.980469 C 91.351562 84.050781 62.589844 80.90625 62.589844 80.90625 " fill-opacity="1" fill-rule="nonzero"/><path fill="#ffffff" d="M 105.304688 86.789062 C 105.304688 86.789062 106.164062 91.222656 104.539062 97.238281 C 101.847656 107.222656 110.40625 111.328125 116.132812 115.851562 C 114.578125 112.203125 112.164062 103.601562 112.164062 103.601562 C 112.164062 103.601562 116.457031 111.433594 117.898438 115.128906 C 131.695312 98.652344 105.304688 86.789062 105.304688 86.789062 " fill-opacity="1" fill-rule="nonzero"/><path fill="#ffffff" d="M 160.429688 115.765625 C 160.429688 115.765625 161.179688 119.652344 159.757812 124.929688 C 157.394531 133.683594 165.550781 137.125 169.921875 141.242188 C 168.558594 138.042969 166.441406 130.503906 166.441406 130.503906 C 166.441406 130.503906 170.203125 137.375 171.464844 140.613281 C 183.558594 126.167969 160.429688 115.765625 160.429688 115.765625 " fill-opacity="1" fill-rule="nonzero"/><path fill="#ffffff" d="M 81.039062 152.277344 C 81.039062 152.277344 85.476562 153.105469 90.476562 156.832031 C 98.769531 163.011719 105.84375 157.277344 112.046875 152.898438 C 108.082031 153.003906 99.195312 152.082031 99.195312 152.082031 C 99.195312 152.082031 108.058594 150.972656 112.023438 150.996094 C 101.78125 132.105469 81.039062 152.277344 81.039062 152.277344 " fill-opacity="1" fill-rule="nonzero"/><path fill="#ffffff" d="M 102.140625 257.722656 C 102.140625 257.722656 105.414062 256.191406 110.40625 256.28125 C 118.679688 256.429688 120.085938 248.464844 122.597656 243.65625 C 120.066406 245.574219 113.859375 249.125 113.859375 249.125 C 113.859375 249.125 119.105469 244.265625 121.695312 242.429688 C 106.21875 234.921875 102.140625 257.722656 102.140625 257.722656 " fill-opacity="1" fill-rule="nonzero"/><path fill="#ffffff" d="M 100.089844 185.558594 C 100.089844 185.558594 103.054688 185.285156 106.902344 186.742188 C 113.28125 189.160156 115.828125 185.347656 119.871094 180.335938 C 117.375 181.121094 111.574219 182.144531 111.574219 182.144531 C 111.574219 182.144531 116.996094 179.839844 119.515625 179.128906 C 109.59375 169.003906 100.089844 185.558594 100.089844 185.558594 " fill-opacity="1" fill-rule="nonzero"/><path fill="#ffffff" d="M 112.972656 142.582031 C 112.972656 142.582031 114.726562 144.992188 115.441406 149.042969 C 116.625 155.761719 122.191406 155.753906 127.574219 156.914062 C 125.625 155.171875 121.777344 150.707031 121.777344 150.707031 C 121.777344 150.707031 126.53125 154.191406 128.429688 155.996094 C 132.0625 142.289062 112.972656 142.582031 112.972656 142.582031 " fill-opacity="1" fill-rule="nonzero"/><path fill="#ffffff" d="M 163.917969 165.613281 C 163.917969 165.613281 161.984375 167.882812 160.96875 171.867188 C 159.28125 178.476562 153.726562 178.050781 148.273438 178.796875 C 150.351562 177.210938 154.523438 173.050781 154.523438 173.050781 C 154.523438 173.050781 149.519531 176.160156 147.492188 177.8125 C 144.90625 163.875 163.917969 165.613281 163.917969 165.613281 " fill-opacity="1" fill-rule="nonzero"/><path fill="#ffffff" d="M 115.4375 189.542969 C 115.4375 189.542969 118.773438 191.324219 123.992188 191.511719 C 132.648438 191.820312 133.929688 199.085938 136.027344 205.382812 C 133.488281 203.238281 127.203125 199.183594 127.203125 199.183594 C 127.203125 199.183594 132.414062 204.554688 135.015625 206.621094 C 118.421875 213.59375 115.4375 189.542969 115.4375 189.542969 " fill-opacity="1" fill-rule="nonzero"/><path fill="#ffffff" d="M 58.003906 172.792969 C 58.003906 172.792969 61.671875 175.425781 64.617188 180.917969 C 69.503906 190.035156 78.546875 187.222656 85.816406 186.511719 C 82.183594 184.921875 74.527344 180.320312 74.527344 180.320312 C 74.527344 180.320312 83.023438 183.078125 86.605469 184.777344 C 85.347656 163.324219 58.003906 172.792969 58.003906 172.792969 " fill-opacity="1" fill-rule="nonzero"/><path fill="#ffffff" d="M 49.28125 266.582031 C 49.28125 266.582031 52.949219 269.214844 55.894531 274.710938 C 60.777344 283.824219 66.976562 281.300781 77.09375 280.300781 C 73.457031 278.710938 65.804688 274.109375 65.804688 274.109375 C 65.804688 274.109375 74.300781 276.867188 77.882812 278.566406 C 76.625 257.117188 49.28125 266.582031 49.28125 266.582031 " fill-opacity="1" fill-rule="nonzero"/><path fill="#ffffff" d="M 78.285156 108.964844 C 78.285156 108.964844 80.410156 112.949219 80.621094 119.179688 C 80.976562 129.515625 91.34375 130.875 97.164062 133.570312 C 94.609375 130.535156 89.777344 123.027344 89.777344 123.027344 C 89.777344 123.027344 96.175781 129.253906 98.640625 132.363281 C 106.996094 112.566406 78.285156 108.964844 78.285156 108.964844 " fill-opacity="1" fill-rule="nonzero"/><path fill="#ffffff" d="M 125.175781 98.101562 C 125.175781 98.101562 127.148438 101.355469 127.617188 106.582031 C 128.394531 115.253906 137.949219 116.265625 142.195312 117.90625 C 139.902344 115.476562 135.492188 109.386719 135.492188 109.386719 C 135.492188 109.386719 141.164062 114.328125 143.378906 116.824219 C 149.476562 99.789062 125.175781 98.101562 125.175781 98.101562 " fill-opacity="1" fill-rule="nonzero"/><path fill="#ffffff" d="M 133.367188 284.324219 C 133.367188 284.324219 137.8125 283.519531 143.808594 285.214844 C 153.757812 288.035156 156.28125 282.777344 162.558594 273.851562 C 158.890625 275.363281 150.265625 277.667969 150.265625 277.667969 C 150.265625 277.667969 158.148438 273.476562 161.863281 272.078125 C 145.558594 258.082031 133.367188 284.324219 133.367188 284.324219 " fill-opacity="1" fill-rule="nonzero"/><path fill="#ffffff" d="M 36.222656 117.269531 C 36.222656 117.269531 39.101562 120.75 40.558594 126.8125 C 42.972656 136.863281 53.675781 136.894531 59.648438 137.589844 C 56.535156 135.136719 50.296875 128.742188 50.296875 128.742188 C 50.296875 128.742188 57.816406 133.5625 60.851562 136.117188 C 65.066406 115.042969 36.222656 117.269531 36.222656 117.269531 " fill-opacity="1" fill-rule="nonzero"/><path fill="#ffffff" d="M 169.675781 191.339844 C 169.675781 191.339844 170.464844 195.410156 168.972656 200.933594 C 166.5 210.097656 173.53125 213.40625 179.617188 218.019531 C 178.1875 214.667969 175.972656 206.773438 175.972656 206.773438 C 175.972656 206.773438 179.914062 213.96875 181.234375 217.359375 C 193.902344 202.230469 169.675781 191.339844 169.675781 191.339844 " fill-opacity="1" fill-rule="nonzero"/><path fill="#ffffff" d="M 70.40625 201.226562 C 70.40625 201.226562 73.167969 203.6875 75.105469 208.414062 C 78.3125 216.261719 85.804688 214.4375 91.910156 214.777344 C 89.085938 213.171875 83.234375 208.769531 83.234375 208.769531 C 83.234375 208.769531 89.925781 211.738281 92.703125 213.429688 C 93.5 195.835938 70.40625 201.226562 70.40625 201.226562 " fill-opacity="1" fill-rule="nonzero"/><g clip-path="url(#11c630d4cb)"><path fill="#ffffff" d="M 11.078125 199.4375 C 11.078125 199.4375 13.667969 202.082031 15.269531 206.933594 C 17.933594 214.984375 26.039062 214.105469 31.601562 214.4375 C 28.890625 212.640625 23.359375 207.847656 23.359375 207.847656 C 23.359375 207.847656 29.828125 211.269531 32.484375 213.148438 C 34.488281 195.648438 11.078125 199.4375 11.078125 199.4375 " fill-opacity="1" fill-rule="nonzero"/></g><path fill="#ffffff" d="M 12.390625 168.011719 C 12.390625 168.011719 14.363281 171.144531 14.90625 176.222656 C 15.808594 184.652344 23.277344 185.898438 29.285156 187.003906 C 27.015625 184.675781 22.621094 178.824219 22.621094 178.824219 C 22.621094 178.824219 28.222656 183.535156 30.417969 185.929688 C 36.074219 169.25 12.390625 168.011719 12.390625 168.011719 " fill-opacity="1" fill-rule="nonzero"/><path fill="#ffffff" d="M 12.390625 229.167969 C 12.390625 229.167969 15.722656 230.78125 18.878906 234.800781 C 24.109375 241.46875 31.292969 237.945312 36.785156 236.320312 C 33.625 235.550781 26.796875 232.917969 26.796875 232.917969 C 26.796875 232.917969 34.042969 233.941406 37.175781 234.808594 C 33.128906 217.667969 12.390625 229.167969 12.390625 229.167969 " fill-opacity="1" fill-rule="nonzero"/><path fill="#ffffff" d="M 24.785156 278.476562 C 24.785156 278.476562 28.117188 280.089844 31.269531 284.109375 C 36.503906 290.777344 42.398438 287.691406 49.175781 285.628906 C 46.019531 284.863281 39.1875 282.226562 39.1875 282.226562 C 39.1875 282.226562 46.4375 283.253906 49.570312 284.121094 C 45.523438 266.976562 24.785156 278.476562 24.785156 278.476562 " fill-opacity="1" fill-rule="nonzero"/><path fill="#ffffff" d="M 47.117188 232.386719 C 47.117188 232.386719 49.5 235.21875 50.730469 240.179688 C 52.769531 248.402344 60.585938 248.652344 66.441406 248.898438 C 63.875 246.90625 58.722656 241.703125 58.722656 241.703125 C 58.722656 241.703125 64.914062 245.609375 67.417969 247.683594 C 70.75 230.382812 47.117188 232.386719 47.117188 232.386719 " fill-opacity="1" fill-rule="nonzero"/><path fill="#ffffff" d="M 42.398438 209.152344 C 42.398438 209.152344 45.6875 211.316406 48.445312 216.003906 C 53.023438 223.769531 61.277344 220.496094 67.113281 220.128906 C 63.890625 218.871094 57.058594 215.132812 57.058594 215.132812 C 57.058594 215.132812 64.558594 217.234375 67.738281 218.589844 C 65.886719 199.945312 42.398438 209.152344 42.398438 209.152344 " fill-opacity="1" fill-rule="nonzero"/><path fill="#ffffff" d="M 72.375 257.671875 C 72.375 257.671875 75.652344 259.46875 78.625 263.6875 C 83.558594 270.683594 91.160156 268.691406 96.609375 266.148438 C 93.464844 265.207031 86.710938 262.195312 86.710938 262.195312 C 86.710938 262.195312 93.96875 263.609375 97.082031 264.644531 C 93.890625 247.140625 72.375 257.671875 72.375 257.671875 " fill-opacity="1" fill-rule="nonzero"/><path fill="#ffffff" d="M 129.683594 250.6875 C 129.683594 250.6875 132.960938 252.484375 135.9375 256.703125 C 140.867188 263.703125 148.46875 261.707031 153.917969 259.167969 C 150.773438 258.226562 144.019531 255.214844 144.019531 255.214844 C 144.019531 255.214844 151.277344 256.625 154.394531 257.660156 C 151.199219 240.160156 129.683594 250.6875 129.683594 250.6875 " fill-opacity="1" fill-rule="nonzero"/><path fill="#ffffff" d="M 243.347656 258.828125 C 243.347656 258.828125 240.527344 256.375 238.515625 251.625 C 235.179688 243.738281 227.328125 244.074219 221.460938 245.40625 C 224.339844 246.992188 230.296875 251.363281 230.296875 251.363281 C 230.296875 251.363281 223.503906 248.449219 220.679688 246.773438 C 220.09375 264.558594 243.347656 258.828125 243.347656 258.828125 " fill-opacity="1" fill-rule="nonzero"/><path fill="#ffffff" d="M 76.039062 291.621094 C 76.039062 291.621094 79.242188 289.691406 82.039062 285.351562 C 86.679688 278.160156 94.097656 279.917969 99.90625 282.15625 C 96.800781 283.226562 90.179688 286.511719 90.179688 286.511719 C 90.179688 286.511719 97.371094 284.804688 100.445312 283.640625 C 97.96875 301.257812 76.039062 291.621094 76.039062 291.621094 " fill-opacity="1" fill-rule="nonzero"/><path fill="#ffffff" d="M 45.226562 300.878906 C 45.226562 300.878906 48.429688 298.945312 51.226562 294.609375 C 55.867188 287.417969 62.484375 289.59375 69.09375 291.414062 C 65.988281 292.484375 59.367188 295.769531 59.367188 295.769531 C 59.367188 295.769531 66.558594 294.0625 69.628906 292.898438 C 67.15625 310.515625 45.226562 300.878906 45.226562 300.878906 " fill-opacity="1" fill-rule="nonzero"/><path fill="#ffffff" d="M 15.515625 252.121094 C 15.515625 252.121094 19.644531 253.949219 23.652344 258.722656 C 30.296875 266.644531 40.203125 261.515625 45.546875 259.855469 C 41.664062 259.042969 33.230469 256.109375 33.230469 256.109375 C 33.230469 256.109375 42.109375 257.070312 45.964844 257.996094 C 40.339844 237.261719 15.515625 252.121094 15.515625 252.121094 " fill-opacity="1" fill-rule="nonzero"/><path fill="#ffffff" d="M 39.332031 178.671875 C 39.332031 178.671875 42.253906 182.113281 43.78125 188.160156 C 46.316406 198.1875 57.664062 197.695312 62.996094 198.714844 C 59.855469 196.292969 53.542969 189.980469 53.542969 189.980469 C 53.542969 189.980469 61.117188 194.707031 64.183594 197.226562 C 68.152344 176.105469 39.332031 178.671875 39.332031 178.671875 " fill-opacity="1" fill-rule="nonzero"/><path fill="#ffffff" d="M 72.179688 246.066406 C 72.179688 246.066406 75.964844 245.605469 80.929688 247.328125 C 89.175781 250.183594 94.203125 243.589844 97.277344 238.667969 C 94.113281 239.765625 86.734375 241.289062 86.734375 241.289062 C 86.734375 241.289062 93.582031 238.136719 96.773438 237.140625 C 83.722656 224.558594 72.179688 246.066406 72.179688 246.066406 " fill-opacity="1" fill-rule="nonzero"/><path fill="#ffffff" d="M 102.917969 227.117188 C 102.917969 227.117188 105.714844 227.613281 108.878906 229.933594 C 114.128906 233.773438 119.15625 230.171875 122.425781 227.335938 C 119.929688 227.425781 114.339844 226.894531 114.339844 226.894531 C 114.339844 226.894531 119.90625 226.148438 122.402344 226.144531 C 115.855469 214.3125 102.917969 227.117188 102.917969 227.117188 " fill-opacity="1" fill-rule="nonzero"/><path fill="#ffffff" d="M 18.972656 146.296875 C 18.972656 146.296875 23.292969 149.460938 26.734375 156.007812 C 32.4375 166.871094 44.523438 163.355469 51.824219 162.855469 C 47.53125 160.933594 38.496094 155.394531 38.496094 155.394531 C 38.496094 155.394531 48.546875 158.753906 52.78125 160.804688 C 51.5 135.34375 18.972656 146.296875 18.972656 146.296875 " fill-opacity="1" fill-rule="nonzero"/><path fill="#ffffff" d="M 167.53125 167.03125 C 167.53125 167.03125 169.222656 169.746094 169.667969 174.132812 C 170.40625 181.410156 176.660156 181.835938 182.027344 183.503906 C 180.082031 181.484375 176.3125 176.414062 176.3125 176.414062 C 176.3125 176.414062 181.128906 180.503906 183.015625 182.585938 C 187.972656 168.210938 167.53125 167.03125 167.53125 167.03125 " fill-opacity="1" fill-rule="nonzero"/><path fill="#ffffff" d="M 187.128906 137.289062 C 187.128906 137.289062 187.453125 140.773438 189.972656 144.894531 C 194.152344 151.726562 188.820312 156.269531 185.410156 161.257812 C 185.773438 158.203125 185.691406 151.285156 185.691406 151.285156 C 185.691406 151.285156 184.210938 158.042969 183.945312 161.101562 C 170.09375 151.863281 187.128906 137.289062 187.128906 137.289062 " fill-opacity="1" fill-rule="nonzero"/><path fill="#ffffff" d="M 228.34375 123.273438 C 228.34375 123.273438 227.246094 126.59375 223.867188 130.046875 C 218.261719 135.769531 222.441406 141.390625 224.644531 147.011719 C 224.980469 143.957031 226.609375 137.230469 226.609375 137.230469 C 226.609375 137.230469 226.539062 144.152344 226.109375 147.195312 C 241.675781 141.292969 228.34375 123.273438 228.34375 123.273438 " fill-opacity="1" fill-rule="nonzero"/><path fill="#ffffff" d="M 123.636719 43.023438 C 123.636719 43.023438 125.398438 46.28125 125.605469 51.386719 C 125.953125 59.855469 134.34375 61.699219 139.242188 63.089844 C 137.128906 60.621094 133.128906 54.488281 133.128906 54.488281 C 133.128906 54.488281 138.410156 59.558594 140.445312 62.09375 C 147.183594 45.820312 123.636719 43.023438 123.636719 43.023438 " fill-opacity="1" fill-rule="nonzero"/><path fill="#ffffff" d="M 147.730469 35.355469 C 147.730469 35.355469 148.589844 39.789062 146.964844 45.804688 C 144.269531 55.789062 151.269531 59.96875 158.558594 64.414062 C 157.003906 60.769531 154.589844 52.167969 154.589844 52.167969 C 154.589844 52.167969 158.878906 60 160.320312 63.699219 C 174.117188 47.21875 147.730469 35.355469 147.730469 35.355469 " fill-opacity="1" fill-rule="nonzero"/><path fill="#ffffff" d="M 168.503906 72.027344 C 168.503906 72.027344 168.699219 76.351562 171.570312 81.597656 C 176.328125 90.296875 171.230469 95.902344 164.953125 101.550781 C 165.582031 97.800781 165.894531 89.242188 165.894531 89.242188 C 165.894531 89.242188 163.660156 97.507812 163.148438 101.277344 C 146.578125 89.027344 168.503906 72.027344 168.503906 72.027344 " fill-opacity="1" fill-rule="nonzero"/><path fill="#ffffff" d="M 101.847656 49.886719 C 101.847656 49.886719 102.867188 55.144531 100.941406 62.285156 C 97.742188 74.128906 107.28125 78.394531 114.691406 84.359375 C 112.847656 80.03125 109.984375 69.828125 109.984375 69.828125 C 109.984375 69.828125 115.074219 79.121094 116.785156 83.503906 C 133.148438 63.960938 101.847656 49.886719 101.847656 49.886719 " fill-opacity="1" fill-rule="nonzero"/><path fill="#ffffff" d="M 243.367188 167.140625 C 243.367188 167.140625 240.703125 167.765625 237.777344 170.15625 C 232.921875 174.117188 229.328125 171.199219 224.617188 168.351562 C 227.019531 168.308594 232.375 167.511719 232.375 167.511719 C 232.375 167.511719 226.976562 167.082031 224.578125 167.199219 C 230.273438 155.488281 243.367188 167.140625 243.367188 167.140625 " fill-opacity="1" fill-rule="nonzero"/><path fill="#ffffff" d="M 300.019531 176.550781 C 300.019531 176.550781 297.304688 176.882812 294.136719 178.945312 C 288.886719 182.359375 285.625 179.074219 281.246094 175.742188 C 283.640625 175.957031 289.046875 175.738281 289.046875 175.738281 C 289.046875 175.738281 283.730469 174.730469 281.332031 174.585938 C 288.25 163.558594 300.019531 176.550781 300.019531 176.550781 " fill-opacity="1" fill-rule="nonzero"/><path fill="#ffffff" d="M 297.203125 151.855469 C 297.203125 151.855469 294.820312 153.199219 291.046875 153.417969 C 284.792969 153.78125 284.117188 158.363281 282.574219 163.644531 C 284.371094 162.054688 288.851562 159.019531 288.851562 159.019531 C 288.851562 159.019531 285.171875 162.984375 283.324219 164.523438 C 295.4375 169.296875 297.203125 151.855469 297.203125 151.855469 " fill-opacity="1" fill-rule="nonzero"/><path fill="#ffffff" d="M 280.195312 252.1875 C 280.195312 252.1875 277.683594 251.097656 273.914062 251.269531 C 267.652344 251.554688 266.507812 247.0625 264.425781 241.972656 C 266.382812 243.367188 271.152344 245.921875 271.152344 245.921875 C 271.152344 245.921875 267.078125 242.359375 265.082031 241.023438 C 276.640625 235.019531 280.195312 252.1875 280.195312 252.1875 " fill-opacity="1" fill-rule="nonzero"/><path fill="#ffffff" d="M 246.835938 126.644531 C 246.835938 126.644531 245.679688 129.128906 242.75 131.503906 C 237.875 135.445312 240.273438 140.695312 241.824219 144.753906 C 242.359375 142.414062 244.230469 137.335938 244.230469 137.335938 C 244.230469 137.335938 243.550781 142.703125 242.949219 145.027344 C 255.570312 141.84375 246.835938 126.644531 246.835938 126.644531 " fill-opacity="1" fill-rule="nonzero"/><g clip-path="url(#3088e517fe)"><path fill="#ffffff" d="M 203.199219 31.117188 C 203.199219 31.117188 202.496094 34.75 203.824219 39.679688 C 206.03125 47.863281 199.625 50.871094 194.320312 54.9375 C 195.59375 51.945312 197.574219 44.898438 197.574219 44.898438 C 197.574219 44.898438 194.058594 51.316406 192.878906 54.347656 C 181.570312 40.839844 203.199219 31.117188 203.199219 31.117188 " fill-opacity="1" fill-rule="nonzero"/></g><path fill="#ffffff" d="M 291.664062 64.695312 C 291.664062 64.695312 290.960938 68.332031 292.292969 73.265625 C 294.5 81.449219 287.371094 85.417969 282.789062 88.515625 C 284.066406 85.527344 286.042969 78.476562 286.042969 78.476562 C 286.042969 78.476562 282.527344 84.898438 281.347656 87.925781 C 270.039062 74.421875 291.664062 64.695312 291.664062 64.695312 " fill-opacity="1" fill-rule="nonzero"/><path fill="#ffffff" d="M 325.871094 96.511719 C 325.871094 96.511719 323.917969 99.65625 323.40625 104.742188 C 322.558594 113.175781 313.34375 113.054688 309.097656 115.617188 C 311.355469 113.277344 315.710938 107.394531 315.710938 107.394531 C 315.710938 107.394531 310.136719 112.140625 307.957031 114.550781 C 302.195312 97.90625 325.871094 96.511719 325.871094 96.511719 " fill-opacity="1" fill-rule="nonzero"/><path fill="#ffffff" d="M 270.503906 118.328125 C 270.503906 118.328125 269.03125 121.722656 269.265625 126.828125 C 269.65625 135.296875 261.230469 137.589844 256.695312 139.671875 C 258.585938 137.027344 262.039062 130.570312 262.039062 130.570312 C 262.039062 130.570312 257.21875 136.082031 255.410156 138.78125 C 247.285156 123.15625 270.503906 118.328125 270.503906 118.328125 " fill-opacity="1" fill-rule="nonzero"/><path fill="#ffffff" d="M 310.367188 125.683594 C 310.367188 125.683594 308.414062 128.824219 307.902344 133.910156 C 307.054688 142.34375 301.765625 142.917969 293.59375 144.785156 C 295.851562 142.445312 300.207031 136.5625 300.207031 136.5625 C 300.207031 136.5625 294.632812 141.308594 292.453125 143.71875 C 286.691406 127.074219 310.367188 125.683594 310.367188 125.683594 " fill-opacity="1" fill-rule="nonzero"/><path fill="#ffffff" d="M 322.671875 148.765625 C 322.671875 148.765625 319.703125 150.976562 317.363281 155.519531 C 313.484375 163.054688 305.914062 160.902344 300.066406 160.394531 C 303.023438 159.042969 309.234375 155.164062 309.234375 155.164062 C 309.234375 155.164062 302.308594 157.542969 299.398438 158.984375 C 300.132812 141.386719 322.671875 148.765625 322.671875 148.765625 " fill-opacity="1" fill-rule="nonzero"/><path fill="#ffffff" d="M 286.792969 188.542969 C 286.792969 188.542969 283.625 188.039062 279.386719 189.335938 C 272.355469 191.492188 268.171875 185.859375 265.878906 181.539062 C 268.511719 182.558594 274.683594 184.066406 274.683594 184.066406 C 274.683594 184.066406 269.011719 181.207031 266.351562 180.265625 C 277.734375 170.066406 286.792969 188.542969 286.792969 188.542969 " fill-opacity="1" fill-rule="nonzero"/><path fill="#ffffff" d="M 266.824219 284.332031 C 266.824219 284.332031 263.746094 282.273438 258.683594 281.589844 C 250.28125 280.457031 247.832031 276.375 248.300781 266.925781 C 250.5625 269.257812 256.296875 273.8125 256.296875 273.8125 C 256.296875 273.8125 251.738281 268.082031 249.402344 265.820312 C 266.234375 260.621094 266.824219 284.332031 266.824219 284.332031 " fill-opacity="1" fill-rule="nonzero"/><path fill="#ffffff" d="M 249.367188 74.675781 C 249.367188 74.675781 247.585938 77.921875 247.339844 83.023438 C 246.929688 91.492188 239.8125 92.515625 233.621094 94.632812 C 235.75 92.175781 239.792969 86.070312 239.792969 86.070312 C 239.792969 86.070312 234.476562 91.101562 232.421875 93.625 C 225.800781 77.304688 249.367188 74.675781 249.367188 74.675781 " fill-opacity="1" fill-rule="nonzero"/><path fill="#ffffff" d="M 312.027344 80.90625 C 312.027344 80.90625 309.839844 84.859375 309.53125 91.082031 C 309.011719 101.410156 300.386719 101.320312 292.761719 105.207031 C 295.367188 102.21875 300.3125 94.78125 300.3125 94.78125 C 300.3125 94.78125 293.816406 100.910156 291.304688 103.980469 C 283.265625 84.050781 312.027344 80.90625 312.027344 80.90625 " fill-opacity="1" fill-rule="nonzero"/><path fill="#ffffff" d="M 269.3125 86.789062 C 269.3125 86.789062 268.449219 91.222656 270.074219 97.238281 C 272.769531 107.222656 264.207031 111.328125 258.480469 115.851562 C 260.039062 112.203125 262.449219 103.601562 262.449219 103.601562 C 262.449219 103.601562 258.160156 111.433594 256.71875 115.128906 C 242.921875 98.652344 269.3125 86.789062 269.3125 86.789062 " fill-opacity="1" fill-rule="nonzero"/><path fill="#ffffff" d="M 214.1875 115.765625 C 214.1875 115.765625 213.433594 119.652344 214.859375 124.929688 C 217.222656 133.683594 209.066406 137.125 204.695312 141.242188 C 206.058594 138.042969 208.171875 130.503906 208.171875 130.503906 C 208.171875 130.503906 204.414062 137.375 203.152344 140.613281 C 191.058594 126.167969 214.1875 115.765625 214.1875 115.765625 " fill-opacity="1" fill-rule="nonzero"/><path fill="#ffffff" d="M 282.839844 146.851562 C 282.839844 146.851562 281.015625 150.03125 280.6875 155.070312 C 280.136719 163.433594 272.878906 164.785156 266.917969 166.308594 C 269.066406 163.914062 273.167969 157.953125 273.167969 157.953125 C 273.167969 157.953125 267.824219 162.835938 265.753906 165.292969 C 259.484375 149.039062 282.839844 146.851562 282.839844 146.851562 " fill-opacity="1" fill-rule="nonzero"/><path fill="#ffffff" d="M 257.03125 255.558594 C 257.03125 255.558594 254.085938 253.460938 249.164062 252.648438 C 240.996094 251.292969 241.058594 243.207031 239.460938 238.023438 C 241.601562 240.367188 247.0625 244.980469 247.0625 244.980469 C 247.0625 244.980469 242.78125 239.253906 240.570312 236.980469 C 257.152344 232.398438 257.03125 255.558594 257.03125 255.558594 " fill-opacity="1" fill-rule="nonzero"/><path fill="#ffffff" d="M 258.886719 158.78125 C 258.886719 158.78125 257 161.089844 253.265625 162.804688 C 247.0625 165.648438 247.988281 170.132812 248.710938 176.53125 C 249.90625 174.203125 253.25 169.351562 253.25 169.351562 C 253.25 169.351562 251.085938 174.835938 249.820312 177.125 C 263.996094 177.179688 258.886719 158.78125 258.886719 158.78125 " fill-opacity="1" fill-rule="nonzero"/><path fill="#ffffff" d="M 326.828125 168.511719 C 326.828125 168.511719 324.367188 170.195312 322.339844 173.773438 C 318.972656 179.707031 314.582031 178.398438 308.269531 177.125 C 310.691406 176.136719 315.808594 173.21875 315.808594 173.21875 C 315.808594 173.21875 310.164062 174.90625 307.773438 175.972656 C 308.941406 161.84375 326.828125 168.511719 326.828125 168.511719 " fill-opacity="1" fill-rule="nonzero"/><path fill="#ffffff" d="M 266.433594 148.160156 C 266.433594 148.160156 263.675781 149.296875 260.945312 152.375 C 256.425781 157.480469 251.679688 154.5625 246.488281 152.734375 C 249.0625 152.265625 254.675781 150.480469 254.675781 150.480469 C 254.675781 150.480469 248.804688 150.953125 246.246094 151.5 C 250.324219 137.917969 266.433594 148.160156 266.433594 148.160156 " fill-opacity="1" fill-rule="nonzero"/><path fill="#ffffff" d="M 282.523438 228.09375 C 282.523438 228.09375 278.054688 227.453125 272.125 229.363281 C 262.285156 232.546875 257.886719 224.910156 252.96875 218.699219 C 256.691406 220.074219 265.394531 222.0625 265.394531 222.0625 C 265.394531 222.0625 257.363281 218.160156 253.601562 216.902344 C 269.386719 202.316406 282.523438 228.09375 282.523438 228.09375 " fill-opacity="1" fill-rule="nonzero"/><path fill="#ffffff" d="M 303.019531 184.277344 C 303.019531 184.277344 300.300781 186.234375 295.738281 187.007812 C 288.171875 188.292969 288.011719 195.316406 286.792969 200.597656 C 288.769531 198.417969 293.816406 194.121094 293.816406 194.121094 C 293.816406 194.121094 289.871094 199.445312 287.828125 201.5625 C 303.214844 205.746094 303.019531 184.277344 303.019531 184.277344 " fill-opacity="1" fill-rule="nonzero"/><path fill="#ffffff" d="M 325.335938 266.582031 C 325.335938 266.582031 321.667969 269.214844 318.722656 274.710938 C 313.839844 283.824219 307.640625 281.300781 297.523438 280.300781 C 301.15625 278.710938 308.8125 274.109375 308.8125 274.109375 C 308.8125 274.109375 300.316406 276.867188 296.734375 278.566406 C 297.992188 257.117188 325.335938 266.582031 325.335938 266.582031 " fill-opacity="1" fill-rule="nonzero"/><path fill="#ffffff" d="M 292.523438 112.140625 C 292.523438 112.140625 291 116.390625 291.695312 122.582031 C 292.847656 132.859375 282.785156 135.714844 277.417969 139.226562 C 279.507812 135.851562 283.195312 127.722656 283.195312 127.722656 C 283.195312 127.722656 277.769531 134.8125 275.785156 138.246094 C 264.640625 119.875 292.523438 112.140625 292.523438 112.140625 " fill-opacity="1" fill-rule="nonzero"/><path fill="#ffffff" d="M 248.996094 95.578125 C 248.996094 95.578125 245.4375 98.351562 239.332031 99.628906 C 229.214844 101.742188 229.335938 113.15625 227.984375 118.386719 C 230.535156 115.351562 237.109375 109.304688 237.109375 109.304688 C 237.109375 109.304688 232.070312 116.675781 229.425781 119.632812 C 250.363281 124.476562 248.996094 95.578125 248.996094 95.578125 " fill-opacity="1" fill-rule="nonzero"/><path fill="#ffffff" d="M 241.246094 284.324219 C 241.246094 284.324219 236.800781 283.519531 230.804688 285.214844 C 220.855469 288.035156 218.335938 282.777344 212.058594 273.851562 C 215.722656 275.363281 224.351562 277.667969 224.351562 277.667969 C 224.351562 277.667969 216.464844 273.476562 212.753906 272.078125 C 229.058594 258.082031 241.246094 284.324219 241.246094 284.324219 " fill-opacity="1" fill-rule="nonzero"/><path fill="#ffffff" d="M 338.394531 117.269531 C 338.394531 117.269531 335.515625 120.75 334.058594 126.8125 C 331.644531 136.863281 320.941406 136.894531 314.96875 137.589844 C 318.078125 135.136719 324.320312 128.742188 324.320312 128.742188 C 324.320312 128.742188 316.796875 133.5625 313.765625 136.117188 C 309.546875 115.042969 338.394531 117.269531 338.394531 117.269531 " fill-opacity="1" fill-rule="nonzero"/><path fill="#ffffff" d="M 301.75 228.277344 C 301.75 228.277344 298.4375 226.625 293.328125 226.589844 C 284.851562 226.523438 283.761719 218.890625 281.175781 213.34375 C 283.714844 215.378906 289.976562 219.171875 289.976562 219.171875 C 289.976562 219.171875 284.734375 214.058594 282.132812 212.113281 C 298.175781 204.835938 301.75 228.277344 301.75 228.277344 " fill-opacity="1" fill-rule="nonzero"/><path fill="#ffffff" d="M 272.476562 196.851562 C 272.476562 196.851562 268.792969 197.25 264.46875 199.976562 C 257.300781 204.496094 252.265625 198.660156 247.097656 195.390625 C 250.332031 195.722656 257.648438 195.539062 257.648438 195.539062 C 257.648438 195.539062 250.476562 194.070312 247.234375 193.835938 C 256.808594 179.046875 272.476562 196.851562 272.476562 196.851562 " fill-opacity="1" fill-rule="nonzero"/><path fill="#ffffff" d="M 235.78125 178.835938 C 235.78125 178.835938 232.699219 180.890625 230.128906 185.308594 C 225.863281 192.632812 218.699219 189.792969 212.601562 189.28125 C 215.625 188.085938 222.027344 184.535156 222.027344 184.535156 C 222.027344 184.535156 214.988281 186.546875 212.003906 187.839844 C 213.652344 170.300781 235.78125 178.835938 235.78125 178.835938 " fill-opacity="1" fill-rule="nonzero"/><g clip-path="url(#0bcb7f1d8a)"><path fill="#ffffff" d="M 363.539062 199.4375 C 363.539062 199.4375 360.949219 202.082031 359.34375 206.933594 C 356.683594 214.984375 348.578125 214.105469 343.015625 214.4375 C 345.722656 212.640625 351.257812 207.847656 351.257812 207.847656 C 351.257812 207.847656 344.789062 211.269531 342.132812 213.148438 C 340.128906 195.648438 363.539062 199.4375 363.539062 199.4375 " fill-opacity="1" fill-rule="nonzero"/></g><path fill="#ffffff" d="M 362.222656 169.078125 C 362.222656 169.078125 360.25 172.210938 359.707031 177.289062 C 358.804688 185.71875 351.339844 186.960938 345.332031 188.070312 C 347.597656 185.742188 351.996094 179.890625 351.996094 179.890625 C 351.996094 179.890625 346.394531 184.601562 344.195312 186.996094 C 338.542969 170.3125 362.222656 169.078125 362.222656 169.078125 " fill-opacity="1" fill-rule="nonzero"/><path fill="#ffffff" d="M 362.222656 229.167969 C 362.222656 229.167969 358.894531 230.78125 355.738281 234.800781 C 350.503906 241.46875 343.324219 237.945312 337.832031 236.320312 C 340.992188 235.550781 347.820312 232.917969 347.820312 232.917969 C 347.820312 232.917969 340.574219 233.941406 337.4375 234.808594 C 341.484375 217.667969 362.222656 229.167969 362.222656 229.167969 " fill-opacity="1" fill-rule="nonzero"/><path fill="#ffffff" d="M 349.832031 278.476562 C 349.832031 278.476562 346.496094 280.089844 343.347656 284.109375 C 338.113281 290.777344 332.214844 287.691406 325.4375 285.628906 C 328.597656 284.863281 335.429688 282.226562 335.429688 282.226562 C 335.429688 282.226562 328.175781 283.253906 325.046875 284.121094 C 329.09375 266.976562 349.832031 278.476562 349.832031 278.476562 " fill-opacity="1" fill-rule="nonzero"/><path fill="#ffffff" d="M 327.496094 232.386719 C 327.496094 232.386719 325.117188 235.21875 323.886719 240.179688 C 321.847656 248.402344 314.03125 248.652344 308.175781 248.898438 C 310.742188 246.90625 315.894531 241.703125 315.894531 241.703125 C 315.894531 241.703125 309.703125 245.609375 307.199219 247.683594 C 303.867188 230.382812 327.496094 232.386719 327.496094 232.386719 " fill-opacity="1" fill-rule="nonzero"/><path fill="#ffffff" d="M 332.214844 209.152344 C 332.214844 209.152344 328.929688 211.316406 326.171875 216.003906 C 321.59375 223.769531 313.339844 220.496094 307.503906 220.128906 C 310.726562 218.871094 317.554688 215.132812 317.554688 215.132812 C 317.554688 215.132812 310.058594 217.234375 306.875 218.589844 C 308.726562 199.945312 332.214844 209.152344 332.214844 209.152344 " fill-opacity="1" fill-rule="nonzero"/><path fill="#ffffff" d="M 302.242188 257.671875 C 302.242188 257.671875 298.964844 259.46875 295.992188 263.6875 C 291.058594 270.683594 283.457031 268.691406 278.003906 266.148438 C 281.152344 265.207031 287.90625 262.195312 287.90625 262.195312 C 287.90625 262.195312 280.648438 263.609375 277.535156 264.644531 C 280.730469 247.140625 302.242188 257.671875 302.242188 257.671875 " fill-opacity="1" fill-rule="nonzero"/><path fill="#ffffff" d="M 298.574219 291.621094 C 298.574219 291.621094 295.371094 289.691406 292.578125 285.351562 C 287.933594 278.160156 280.519531 279.917969 274.710938 282.15625 C 277.8125 283.226562 284.4375 286.511719 284.4375 286.511719 C 284.4375 286.511719 277.242188 284.804688 274.171875 283.640625 C 276.644531 301.257812 298.574219 291.621094 298.574219 291.621094 " fill-opacity="1" fill-rule="nonzero"/><path fill="#ffffff" d="M 329.386719 300.878906 C 329.386719 300.878906 326.1875 298.945312 323.390625 294.609375 C 318.75 287.417969 312.132812 289.59375 305.523438 291.414062 C 308.628906 292.484375 315.25 295.769531 315.25 295.769531 C 315.25 295.769531 308.054688 294.0625 304.988281 292.898438 C 307.457031 310.515625 329.386719 300.878906 329.386719 300.878906 " fill-opacity="1" fill-rule="nonzero"/><path fill="#ffffff" d="M 359.101562 252.121094 C 359.101562 252.121094 354.972656 253.949219 350.964844 258.722656 C 344.316406 266.644531 334.414062 261.515625 329.070312 259.855469 C 332.953125 259.042969 341.386719 256.109375 341.386719 256.109375 C 341.386719 256.109375 332.507812 257.070312 328.652344 257.996094 C 334.277344 237.261719 359.101562 252.121094 359.101562 252.121094 " fill-opacity="1" fill-rule="nonzero"/><path fill="#ffffff" d="M 335.285156 178.671875 C 335.285156 178.671875 332.363281 182.113281 330.835938 188.160156 C 328.300781 198.1875 316.953125 197.695312 311.621094 198.714844 C 314.761719 196.292969 321.070312 189.980469 321.070312 189.980469 C 321.070312 189.980469 313.5 194.707031 310.433594 197.226562 C 306.464844 176.105469 335.285156 178.671875 335.285156 178.671875 " fill-opacity="1" fill-rule="nonzero"/><path fill="#ffffff" d="M 304.09375 244.015625 C 304.09375 244.015625 300.316406 243.554688 295.34375 245.277344 C 287.101562 248.136719 282.074219 241.539062 279 236.621094 C 282.160156 237.710938 289.539062 239.234375 289.539062 239.234375 C 289.539062 239.234375 282.699219 236.089844 279.503906 235.09375 C 292.554688 222.507812 304.09375 244.015625 304.09375 244.015625 " fill-opacity="1" fill-rule="nonzero"/><path fill="#ffffff" d="M 355.640625 146.296875 C 355.640625 146.296875 351.320312 149.460938 347.882812 156.007812 C 342.175781 166.871094 330.09375 163.355469 322.792969 162.855469 C 327.085938 160.933594 336.121094 155.394531 336.121094 155.394531 C 336.121094 155.394531 326.070312 158.753906 321.835938 160.804688 C 323.117188 135.34375 355.640625 146.296875 355.640625 146.296875 " fill-opacity="1" fill-rule="nonzero"/><path fill="#ffffff" d="M 205.574219 154.992188 C 205.574219 154.992188 204.90625 158.425781 206.164062 163.089844 C 208.25 170.824219 202.015625 173.699219 197.179688 177.507812 C 198.386719 174.679688 200.257812 168.015625 200.257812 168.015625 C 200.257812 168.015625 196.933594 174.085938 195.816406 176.949219 C 185.128906 164.1875 205.574219 154.992188 205.574219 154.992188 " fill-opacity="1" fill-rule="nonzero"/><path fill="#ffffff" d="M 250.980469 43.023438 C 250.980469 43.023438 249.21875 46.28125 249.011719 51.386719 C 248.664062 59.855469 240.273438 61.699219 235.371094 63.089844 C 237.488281 60.621094 241.484375 54.488281 241.484375 54.488281 C 241.484375 54.488281 236.203125 59.558594 234.167969 62.09375 C 227.429688 45.820312 250.980469 43.023438 250.980469 43.023438 " fill-opacity="1" fill-rule="nonzero"/><path fill="#ffffff" d="M 226.886719 35.355469 C 226.886719 35.355469 226.027344 39.789062 227.652344 45.804688 C 230.34375 55.789062 223.347656 59.96875 216.058594 64.414062 C 217.613281 60.769531 220.027344 52.167969 220.027344 52.167969 C 220.027344 52.167969 215.734375 60 214.296875 63.699219 C 200.496094 47.21875 226.886719 35.355469 226.886719 35.355469 " fill-opacity="1" fill-rule="nonzero"/><path fill="#ffffff" d="M 216.46875 70.710938 C 216.46875 70.710938 215.429688 74.914062 216.6875 80.757812 C 218.777344 90.453125 212.292969 94.378906 204.671875 98.007812 C 206.339844 94.589844 209.070312 86.476562 209.070312 86.476562 C 209.070312 86.476562 204.578125 93.765625 203.015625 97.230469 C 190.617188 80.773438 216.46875 70.710938 216.46875 70.710938 " fill-opacity="1" fill-rule="nonzero"/><path fill="#ffffff" d="M 272.769531 49.886719 C 272.769531 49.886719 271.75 55.144531 273.679688 62.285156 C 276.875 74.128906 267.335938 78.394531 259.925781 84.359375 C 261.769531 80.03125 264.628906 69.828125 264.628906 69.828125 C 264.628906 69.828125 259.539062 79.121094 257.832031 83.503906 C 241.464844 63.960938 272.769531 49.886719 272.769531 49.886719 " fill-opacity="1" fill-rule="nonzero"/><g clip-path="url(#d2449f6ccd)"><path fill="#efeeed" d="M 150.734375 309.882812 C 162.996094 308.699219 172.371094 298.390625 172.339844 286.070312 C 172.300781 270.183594 164.300781 255.292969 159.070312 249.753906 C 138.476562 227.925781 114.382812 238.3125 114.382812 238.3125 C 114.382812 238.3125 133.007812 221.648438 172.535156 246.046875 C 170 237.558594 165.722656 229.171875 160.589844 221.25 C 137.121094 205.207031 116.21875 219.023438 116.21875 219.023438 C 116.21875 219.023438 126.210938 206.253906 152.6875 210.199219 C 134.730469 187.160156 112.492188 170.277344 112.492188 170.277344 C 122.390625 174.777344 131.554688 180.78125 139.777344 187.316406 C 139.585938 167.359375 150.050781 161.300781 150.050781 161.300781 C 150.050781 161.300781 138.261719 174.652344 146.492188 192.949219 C 169.007812 212.789062 182.898438 234.898438 182.898438 234.898438 C 184.804688 223.273438 187.414062 213.289062 190.480469 204.707031 C 190.503906 200.09375 190.152344 194.554688 189.082031 188.125 C 184.648438 161.375 170.882812 155.878906 170.882812 155.878906 C 170.882812 155.878906 189.96875 161.289062 196.097656 191.394531 C 214.539062 154.199219 241.738281 152.359375 241.738281 152.359375 C 241.738281 152.359375 219.800781 156.148438 204.953125 194.089844 C 193.109375 224.363281 195.820312 242.742188 195.820312 242.742188 C 214.871094 195.734375 251.359375 176.519531 281.050781 168.808594 C 262.742188 176.105469 240.765625 191.109375 218.527344 220.894531 C 260.429688 191.621094 297.316406 209.664062 297.316406 209.664062 C 297.316406 209.664062 257.992188 198.085938 226.246094 230.683594 C 251.707031 227.367188 261.355469 239.699219 261.355469 239.699219 C 261.355469 239.699219 240.648438 226.007812 217.320312 241.695312 C 211.957031 249.628906 207.289062 259.371094 203.710938 271.328125 C 202.09375 276.734375 202.222656 284.207031 204.53125 292.609375 C 207.160156 302.148438 215.421875 309.066406 225.269531 310.015625 L 304.21875 317.617188 L 70.398438 317.617188 L 150.734375 309.882812 " fill-opacity="1" fill-rule="nonzero"/></g></svg>